<?xml version="1.0" encoding="iso-8859-1"?>
<svg height="800px" width="800px" version="1.1" id="Layer_1" xmlns="http://www.w3.org/2000/svg" xmlns:xlink="http://www.w3.org/1999/xlink" 
	 viewBox="0 0 512 512" xml:space="preserve">
<circle style="fill:#FFA91F;" cx="255.996" cy="256" r="255.996"/>
<path style="fill:#FF8800;" d="M512,256.003c0-14.387-1.206-28.491-3.488-42.231l-82.908-82.909
	c-16.003-18.061-38.395-23.927-47.616-16.624c0,0,0,0-0.001,0.001c-19.964-11.961-43.754-22.341-70.901-28.384
	c-0.321-0.277-0.649-0.555-0.991-0.834c-6.428-8.574-28.608-22.321-50.097-22.321c-21.984,0-44.7,14.391-50.524,22.908
	c-0.025,0.037-0.048,0.089-0.072,0.132c-27.351,6.027-51.307,16.464-71.392,28.498c-12.773-10.116-50.823,5.025-62.15,42.863
	c-0.956,3.18-1.09,7.359-0.478,12.372c0,0.003,0.001,0.006,0.001,0.009c-35.511,48.797-11.774,80.725,45.812,138.023
	c0.047,0.047,0.097,0.096,0.145,0.143l54.637,54.642c-15.125,19.023-18.058,35.332-2.593,53.892l95.655,95.643
	C402.236,507.063,512,394.361,512,256.003z"/>
<path style="fill:#394CE2;" d="M169.386,416.185c12.685,15.224,49.651,33.123,86.615,33.123s73.929-17.899,86.613-33.123
	c20.223-24.271,9.019-44.683-19.82-72.363c-12.126-11.638-46.772-39.939-66.793-39.939s-54.669,28.301-66.794,39.939
	C160.367,371.501,149.162,391.913,169.386,416.185z"/>
<path style="fill:#1B2DDD;" d="M322.794,343.821c-12.126-11.638-46.772-39.939-66.793-39.939c-0.001,0-0.003,0-0.004,0v145.424
	c0.001,0,0.003,0,0.004,0c36.965,0,73.928-17.899,86.613-33.123C362.837,391.913,351.633,371.501,322.794,343.821z"/>
<path style="fill:#FFFFFF;" d="M435.991,163.439c-26.36-32.798-90.141-83.185-179.993-83.185S102.37,130.641,76.009,163.439
	c-42.025,52.288-18.743,84.436,41.188,144.068c25.197,25.073,97.196,86.041,138.8,86.041s113.606-60.969,138.804-86.041
	C454.733,247.875,478.016,215.727,435.991,163.439z"/>
<path style="fill:#E1E1E3;" d="M435.991,163.439c-26.36-32.798-90.141-83.185-179.993-83.185h-0.002v313.295h0.001
	c41.604,0,113.606-60.969,138.804-86.041C454.733,247.875,478.016,215.727,435.991,163.439z"/>
<path style="fill:#A7AFF2;" d="M306.525,85.609c-5.824-8.518-28.541-22.908-50.525-22.908s-44.7,14.391-50.524,22.908
	c-7.076,10.347,16.064,307.941,50.524,307.941C290.46,393.548,313.6,95.956,306.525,85.609z"/>
<path style="fill:#7884EA;" d="M306.525,85.609c-5.824-8.518-28.541-22.908-50.525-22.908c-0.001,0-0.002,0-0.003,0v330.848
	c0.001,0,0.002,0,0.003,0C290.46,393.548,313.6,95.956,306.525,85.609z"/>
<path style="fill:#A7AFF2;" d="M227.364,386.749c-13.195-5.414-27.368-13.606-41.174-22.888
	C131.099,308.548,76.319,210.805,71.384,169.474c-0.611-5.013-0.478-9.193,0.478-12.372c11.328-37.839,49.378-52.979,62.15-42.863
	c0.567,0.445,1.078,0.934,1.534,1.479c5.647,6.692,30.291,124.322,54.902,197.977C203.21,351.89,216.727,374.044,227.364,386.749z"
	/>
<path style="fill:#7884EA;" d="M440.616,169.474c-4.935,41.329-59.716,139.073-114.807,194.387
	c-13.806,9.282-27.979,17.475-41.174,22.888c10.638-12.706,24.156-34.86,36.917-73.055c24.611-73.655,49.256-191.286,54.902-197.977
	c0.456-0.544,0.968-1.033,1.534-1.479c12.773-10.116,50.823,5.025,62.15,42.863C441.093,160.281,441.227,164.461,440.616,169.474z"
	/>
</svg>