<svg width="24" height="24" viewBox="0 0 24 24" fill="none" xmlns="http://www.w3.org/2000/svg">
<g clip-path="url(#clip0_199_61)">
<path d="M23.0999 23.5H0.899902V21.6C0.899902 21 1.2999 20.6 1.8999 20.6H22.0999C22.6999 20.6 23.0999 21 23.0999 21.6V23.5Z" stroke="#808080" stroke-miterlimit="10" stroke-linecap="round" stroke-linejoin="round"/>
<path d="M21.9999 13.6H1.9999C1.3999 13.6 0.899902 14.1 0.899902 14.7C0.899902 15.3 1.3999 15.8 1.9999 15.8H21.9999C22.5999 15.8 23.0999 15.3 23.0999 14.7C23.0999 14.1 22.5999 13.6 21.9999 13.6Z" stroke="#808080" stroke-miterlimit="10" stroke-linecap="round" stroke-linejoin="round"/>
<path d="M6.2998 13.6V8.19998C6.2998 5.09998 8.7998 2.59998 11.8998 2.59998C14.9998 2.59998 17.4998 5.09998 17.4998 8.19998V13.4" stroke="#808080" stroke-miterlimit="10" stroke-linecap="round" stroke-linejoin="round"/>
<path d="M4.09985 13.6V8.29998C4.09985 3.99998 7.59985 0.599976 11.7999 0.599976C15.9999 0.599976 19.4999 4.09998 19.4999 8.29998V13.6" stroke="#808080" stroke-miterlimit="10" stroke-linecap="round" stroke-linejoin="round"/>
<path d="M11.7998 2.69995V13.6" stroke="#808080" stroke-miterlimit="10" stroke-linecap="round" stroke-linejoin="round"/>
<path d="M1.8999 15.7999V20.4999" stroke="#808080" stroke-miterlimit="10" stroke-linecap="round" stroke-linejoin="round"/>
<path d="M6.5 15.7999V20.4999" stroke="#808080" stroke-miterlimit="10" stroke-linecap="round" stroke-linejoin="round"/>
<path d="M11 15.7999V20.4999" stroke="#808080" stroke-miterlimit="10" stroke-linecap="round" stroke-linejoin="round"/>
<path d="M15.5999 15.7999V20.4999" stroke="#808080" stroke-miterlimit="10" stroke-linecap="round" stroke-linejoin="round"/>
<path d="M20.0999 15.7999V20.4999" stroke="#808080" stroke-miterlimit="10" stroke-linecap="round" stroke-linejoin="round"/>
<path d="M3.8999 15.7999V20.4999" stroke="#808080" stroke-miterlimit="10" stroke-linecap="round" stroke-linejoin="round"/>
<path d="M8.3999 15.7999V20.4999" stroke="#808080" stroke-miterlimit="10" stroke-linecap="round" stroke-linejoin="round"/>
<path d="M13 15.7999V20.4999" stroke="#808080" stroke-miterlimit="10" stroke-linecap="round" stroke-linejoin="round"/>
<path d="M17.5 15.7999V20.4999" stroke="#808080" stroke-miterlimit="10" stroke-linecap="round" stroke-linejoin="round"/>
<path d="M22.0999 15.7999V20.4999" stroke="#808080" stroke-miterlimit="10" stroke-linecap="round" stroke-linejoin="round"/>
<path d="M17.3998 8.19995H6.2998" stroke="#808080" stroke-miterlimit="10" stroke-linecap="round" stroke-linejoin="round"/>
</g>
<defs>
<clipPath id="clip0_199_61">
<rect width="24" height="24" fill="white"/>
</clipPath>
</defs>
</svg>
