<svg width="24" height="23" viewBox="0 0 24 23" fill="none" xmlns="http://www.w3.org/2000/svg">
<g clip-path="url(#clip0_199_43)">
<path d="M0.917725 5.55581C0.917725 6.32491 1.23653 7.06252 1.80402 7.60635C2.3715 8.1502 3.14118 8.45573 3.94372 8.45573C4.74627 8.45573 5.51594 8.1502 6.08343 7.60635C6.65091 7.06252 6.96972 6.32491 6.96972 5.55581V2.91943H0.917725V5.55581Z" stroke="#808080" stroke-width="1.5" stroke-linecap="round" stroke-linejoin="round"/>
<path d="M2.28198 2.91948V0.842773" stroke="#808080" stroke-width="1.5" stroke-linecap="round" stroke-linejoin="round"/>
<path d="M3.94409 11.6006V8.45605" stroke="#808080" stroke-width="1.5" stroke-linecap="round" stroke-linejoin="round"/>
<path d="M5.61304 2.91948V0.842773" stroke="#808080" stroke-width="1.5" stroke-linecap="round" stroke-linejoin="round"/>
<path d="M7.70423 22.1571C8.79053 22.1571 9.67115 21.3131 9.67115 20.272C9.67115 19.231 8.79053 18.3871 7.70423 18.3871C6.61793 18.3871 5.7373 19.231 5.7373 20.272C5.7373 21.3131 6.61793 22.1571 7.70423 22.1571Z" stroke="#808080" stroke-width="1.5" stroke-linecap="round" stroke-linejoin="round"/>
<path d="M17.6586 22.1571C18.7449 22.1571 19.6255 21.3131 19.6255 20.272C19.6255 19.231 18.7449 18.3871 17.6586 18.3871C16.5723 18.3871 15.6917 19.231 15.6917 20.272C15.6917 21.3131 16.5723 22.1571 17.6586 22.1571Z" stroke="#808080" stroke-width="1.5" stroke-linecap="round" stroke-linejoin="round"/>
<path d="M9.66907 20.2721H15.6916M5.67546 20.2721H4.62361C4.22667 20.2721 3.84599 20.1209 3.56531 19.8519C3.28464 19.5829 3.12695 19.2181 3.12695 18.8377V17.1166C3.12699 16.8334 3.21447 16.5566 3.37839 16.321L6.30442 14.531L7.77259 11.2092C7.87186 10.9235 8.06241 10.675 8.31724 10.499C8.57207 10.3229 8.87826 10.2281 9.19242 10.2281H15.0174C15.3316 10.2281 15.6378 10.3229 15.8926 10.499C16.1474 10.675 16.3372 10.9166 16.4935 11.1776L18.5904 14.531L22.831 16.321C22.9949 16.5566 23.0824 16.8334 23.0824 17.1166V18.8377C23.0824 19.2181 22.9247 19.5829 22.6441 19.8519C22.3634 20.1209 21.9827 20.2721 21.5858 20.2721H19.626" stroke="#808080" stroke-width="1.5" stroke-linecap="round" stroke-linejoin="round"/>
<path d="M6.30957 14.5309H18.5968" stroke="#808080" stroke-width="1.5" stroke-linecap="round" stroke-linejoin="round"/>
</g>
<defs>
<clipPath id="clip0_199_43">
<rect width="24" height="23" fill="white"/>
</clipPath>
</defs>
</svg>
