<svg width="24" height="24" viewBox="0 0 24 24" fill="none" xmlns="http://www.w3.org/2000/svg">
<g clip-path="url(#clip0_199_54)">
<path d="M6.57223 22.8555H3.55683C2.22453 22.8555 1.14453 21.7755 1.14453 20.4432V3.55695C1.14453 2.22465 2.22453 1.14465 3.55683 1.14465H20.4429C21.7752 1.14465 22.8552 2.22465 22.8552 3.55695L22.8553 20.4432C22.8553 21.7755 21.7753 22.8555 20.443 22.8555H17.4276" stroke="#808080" stroke-width="1.5" stroke-linecap="round" stroke-linejoin="round"/>
<path d="M22.8555 5.96924H1.14478" stroke="#808080" stroke-width="1.5" stroke-linecap="round" stroke-linejoin="round"/>
<path d="M11.9999 16.8246V22.8554M11.9999 22.8554H9.58765M11.9999 22.8554H14.4122" stroke="#808080" stroke-width="1.5" stroke-linecap="round" stroke-linejoin="round"/>
<path d="M12.0001 16.8245C13.9986 16.8245 15.6186 15.0245 15.6186 12.804V9.58765H8.38159V12.804C8.38159 15.0245 10.0016 16.8245 12.0001 16.8245Z" stroke="#808080" stroke-width="1.5" stroke-linecap="round" stroke-linejoin="round"/>
<path d="M19.2368 3.56894L19.2489 3.55554" stroke="#808080" stroke-width="1.5" stroke-linecap="round" stroke-linejoin="round"/>
<path d="M15.6184 3.56894L15.6304 3.55554" stroke="#808080" stroke-width="1.5" stroke-linecap="round" stroke-linejoin="round"/>
</g>
<defs>
<clipPath id="clip0_199_54">
<rect width="24" height="24" fill="white"/>
</clipPath>
</defs>
</svg>
